<svg xmlns="http://www.w3.org/2000/svg"
     viewBox="102 598 819 299"
     style="--bg: transparent; --fg: #e11d48; display:block;">
  <defs>
    <!-- Máscara recortada al mismo cuadro del viewBox -->
    <mask id="letters-mask" maskUnits="userSpaceOnUse" x="102" y="598" width="819" height="299">
      <rect x="102" y="598" width="819" height="299" fill="white"/>
      <g transform="translate(0,1536) scale(0.1,-0.1)" fill="black" stroke="none">
        <path d="M0 7680 l0 -7680 5120 0 5120 0 0 7680 0 7680 -5120 0 -5120 0 0
-7680z m2715 1370 c286 -170 531 -321 546 -335 42 -39 49 -96 49 -411 l0 -286
-47 28 c-27 15 -92 54 -145 88 l-98 60 0 151 c0 106 -4 156 -12 166 -7 9 -112
74 -233 144 -121 71 -304 180 -407 242 -103 62 -195 113 -203 113 -9 0 -122
-65 -253 -144 -130 -80 -311 -189 -402 -243 l-165 -98 -3 -220 c-4 -272 -1
-296 42 -338 30 -30 610 -379 754 -454 69 -36 117 -41 161 -18 58 30 66 126
13 163 -15 10 -112 68 -216 128 -104 60 -211 129 -238 153 -89 80 -131 206
-108 324 24 127 105 232 218 285 49 23 70 27 152 27 69 0 107 -5 139 -18 24
-10 218 -122 430 -249 578 -346 557 -332 588 -386 l28 -47 3 -236 c4 -264 -3
-323 -48 -416 -41 -84 -110 -152 -265 -263 -776 -559 -763 -550 -813 -550 -57
0 -63 4 -297 173 -585 423 -763 558 -787 594 -52 80 -59 120 -56 360 l3 220
147 -90 146 -91 4 -114 3 -114 36 -31 c77 -69 771 -552 792 -552 21 1 200 122
600 408 231 164 233 167 242 250 4 37 6 128 3 202 -3 116 -6 138 -24 162 -22
29 -50 48 -284 185 -80 47 -221 130 -315 185 -217 128 -227 133 -267 133 -44
0 -76 -23 -86 -63 -11 -43 -4 -72 23 -99 13 -13 116 -77 229 -143 114 -66 224
-134 245 -152 23 -19 49 -56 66 -94 70 -156 12 -363 -131 -471 -66 -49 -127
-69 -224 -70 -101 -1 -153 17 -324 116 -646 373 -691 401 -752 461 -68 67
-106 139 -123 229 -14 75 -15 608 -1 656 14 49 56 86 190 165 99 58 346 208
779 472 78 47 113 63 141 63 30 0 125 -52 555 -310z m1450 -521 c86 -15 171
-64 211 -122 30 -44 64 -150 52 -163 -3 -3 -46 -7 -94 -10 l-89 -5 -20 43
c-28 59 -70 82 -154 82 -103 1 -161 -44 -161 -123 0 -65 56 -100 245 -156 160
-48 232 -96 271 -180 29 -60 32 -158 8 -228 -55 -161 -273 -250 -496 -203 -36
8 -80 22 -97 30 -87 45 -148 136 -158 234 -6 50 -4 55 11 49 10 -4 55 -7 101
-7 l83 0 7 -29 c10 -45 56 -82 122 -97 174 -40 311 85 202 187 -20 19 -70 40
-162 70 -156 50 -213 77 -269 127 -57 51 -78 101 -78 188 0 96 23 158 79 214
92 92 228 127 386 99z m2355 -315 c113 -51 175 -150 193 -305 6 -47 7 -94 4
-103 -6 -14 -34 -16 -256 -16 l-250 0 14 -45 c30 -102 78 -138 174 -132 59 3
66 6 97 40 l34 37 86 0 c84 0 85 0 78 -22 -28 -94 -104 -168 -202 -198 -177
-55 -348 11 -421 163 -102 209 -38 475 138 571 96 52 210 56 311 10z m708 -65
l3 -96 -70 -5 c-79 -6 -112 -23 -138 -71 -16 -27 -18 -65 -21 -270 l-4 -238
-91 3 -92 3 0 375 0 375 93 3 92 3 1 -63 c0 -59 1 -61 12 -33 31 79 88 118
167 113 l45 -3 3 -96z m1331 90 c58 -12 91 -36 132 -92 16 -22 29 -36 29 -30
0 19 76 86 120 106 94 42 229 20 289 -49 55 -61 61 -106 61 -421 l0 -284 -92
3 -93 3 -5 260 c-3 143 -9 267 -14 275 -36 60 -88 81 -150 60 -20 -6 -46 -26
-58 -43 -22 -31 -23 -42 -28 -292 l-5 -260 -95 0 -95 0 -5 265 c-6 296 -8 308
-76 330 -80 27 -146 -18 -164 -109 -5 -30 -10 -152 -10 -272 l0 -219 -95 0
-95 0 0 380 0 380 90 0 90 0 0 -62 0 -63 25 42 c27 44 78 81 129 93 45 11 59
11 115 -1z m-3774 -269 c44 -140 83 -261 86 -269 2 -7 39 96 81 230 42 134 81
256 87 272 10 27 11 27 106 27 52 0 95 -3 95 -6 0 -24 -289 -823 -318 -877
-40 -78 -94 -129 -160 -151 -47 -16 -169 -22 -188 -8 -6 4 -9 34 -6 80 l4 72
35 -6 c22 -4 49 0 78 10 35 14 48 26 66 62 15 31 19 55 15 76 -5 23 -212 604
-262 731 -6 16 1 18 97 15 l103 -3 81 -255z m776 -15 c48 -148 90 -263 93
-255 2 8 42 131 87 273 l83 257 93 0 c51 0 93 -4 93 -9 0 -17 -242 -698 -260
-731 -10 -18 -21 -20 -109 -20 l-98 0 -88 248 c-49 136 -109 304 -135 374 -26
70 -45 130 -42 133 3 3 49 4 101 3 l95 -3 87 -270z m1959 39 c0 -137 5 -253
11 -279 15 -59 47 -87 106 -92 63 -5 110 19 137 72 19 37 21 61 24 288 l4 248
91 -3 92 -3 3 -377 2 -378 -95 0 -95 0 0 63 c-1 51 -3 58 -12 42 -99 -179
-385 -156 -442 36 -13 42 -16 109 -16 336 l0 283 95 0 95 0 0 -236z"/>
        <path d="M6325 8080 c-35 -14 -76 -66 -90 -114 l-14 -46 151 0 150 0 -7 37
c-10 55 -32 91 -68 113 -33 21 -87 25 -122 10z"/>
      </g>
    </mask>
  </defs>

  <!-- Fondo (ya sin márgenes extra) -->
  <rect x="102" y="598" width="819" height="299" fill="var(--bg)"/>
  <!-- Letras/Logo coloreables -->
  <rect x="102" y="598" width="819" height="299" fill="var(--fg)" mask="url(#letters-mask)"/>
</svg>
